<svg viewBox="0 0 180 180" xmlns="http://www.w3.org/2000/svg" fill="white">
  <path fill-rule="evenodd" clip-rule="evenodd" d="m 105.50024,22.224647 c -9.59169,-5.537563 -21.40871,-5.537563 -31.000093,0 L 39.054693,42.689119 C 29.463353,48.226675 23.55484,58.460531 23.55484,69.535642 v 40.928918 c 0,11.07542 5.908513,21.3092 15.499853,26.84652 l 35.445453,20.46446 c 9.591313,5.53732 21.408404,5.53732 31.000094,0 l 35.44507,-20.46446 c 9.59131,-5.53732 15.49985,-15.7711 15.49985,-26.84652 V 69.535642 c 0,-11.075111 -5.90854,-21.308967 -15.49985,-26.846523 z M 34.112797,85.737639 c -1.384445,2.397827 -1.384445,5.352099 0,7.749927 l 24.781554,42.922974 c 1.38437,2.39783 3.942853,3.87496 6.711592,3.87496 h 49.563107 c 2.76905,0 5.3273,-1.47713 6.71144,-3.87496 l 24.78194,-42.922974 c 1.38414,-2.397828 1.38414,-5.3521 0,-7.749927 L 121.88049,42.814746 c -1.38414,-2.397828 -3.94239,-3.874964 -6.71144,-3.874964 H 65.605944 c -2.768739,0 -5.327223,1.477059 -6.711592,3.874964 z" style="stroke-width:0.774993" />
</svg>
